<svg width="114" height="105" viewBox="0 0 114 105" fill="none" xmlns="http://www.w3.org/2000/svg">
<path d="M94.916 63.75H102.083M98.4993 86.25L103.874 80.625M112.833 86.25C112.833 94.5343 106.415 101.25 98.4993 101.25C90.5833 101.25 84.166 94.5343 84.166 86.25C84.166 77.9658 90.5833 71.25 98.4993 71.25C106.415 71.25 112.833 77.9658 112.833 86.25Z" stroke="#00246D" stroke-width="2" stroke-linecap="round" stroke-linejoin="round"/>
<path d="M42.9953 100.336C46.7431 99.7497 50.3332 98.4003 53.5571 96.3657C56.7811 94.3312 59.5746 91.6521 61.7757 88.4839L87.5646 51.6252C96.8231 38.3925 93.8349 19.6939 80.906 9.95935C74.6284 5.25255 67.0001 3.33112 59.3673 4.55091C51.7345 5.77071 45.0849 9.97388 40.5869 16.4027L14.7979 53.2615C5.53941 66.4942 8.52762 85.1928 21.4565 94.9273C24.5353 97.2517 28.0247 98.9267 31.7222 99.8552C35.4196 100.784 39.2514 100.947 42.9953 100.336ZM22.2265 58.8312L32.4596 44.2055L64.6326 68.3278L54.3994 82.9535C51.3258 87.3465 46.7655 90.2165 41.5572 91.0489C36.3489 91.8812 31.1213 90.5754 26.8316 87.3591C22.5804 84.1484 19.7152 79.3466 18.8609 74.0009C18.0067 68.6553 19.2326 63.1996 22.2714 58.824L22.2265 58.8312Z" fill="#00246D"/>
</svg>
