<svg width="77" height="76" viewBox="0 0 77 76" fill="none" xmlns="http://www.w3.org/2000/svg">
<path d="M0 64.4583C0 70.9042 4.98333 75.8333 11.5 75.8333H65.1667C71.6833 75.8333 76.6667 70.9042 76.6667 64.4583V34.125H0V64.4583ZM65.1667 7.58333H57.5V3.79167C57.5 1.51667 55.9667 0 53.6667 0C51.3667 0 49.8333 1.51667 49.8333 3.79167V7.58333H26.8333V3.79167C26.8333 1.51667 25.3 0 23 0C20.7 0 19.1667 1.51667 19.1667 3.79167V7.58333H11.5C4.98333 7.58333 0 12.5125 0 18.9583V26.5417H76.6667V18.9583C76.6667 12.5125 71.6833 7.58333 65.1667 7.58333Z" fill="#00246D"/>
</svg>
