<svg width="72" height="84" viewBox="0 0 72 84" fill="none" xmlns="http://www.w3.org/2000/svg">
<path d="M49.0417 41.625H40.125V32.375C40.125 31.1484 39.6553 29.972 38.8192 29.1046C37.9831 28.2373 36.8491 27.75 35.6667 27.75C34.4842 27.75 33.3502 28.2373 32.5141 29.1046C31.678 29.972 31.2083 31.1484 31.2083 32.375V41.625H22.2917C21.1092 41.625 19.9752 42.1123 19.1391 42.9796C18.303 43.847 17.8333 45.0234 17.8333 46.25C17.8333 47.4766 18.303 48.653 19.1391 49.5204C19.9752 50.3877 21.1092 50.875 22.2917 50.875H31.2083V60.125C31.2083 61.3516 31.678 62.528 32.5141 63.3954C33.3502 64.2627 34.4842 64.75 35.6667 64.75C36.8491 64.75 37.9831 64.2627 38.8192 63.3954C39.6553 62.528 40.125 61.3516 40.125 60.125V50.875H49.0417C50.2241 50.875 51.3581 50.3877 52.1942 49.5204C53.0303 48.653 53.5 47.4766 53.5 46.25C53.5 45.0234 53.0303 43.847 52.1942 42.9796C51.3581 42.1123 50.2241 41.625 49.0417 41.625ZM70.027 19.8551L52.1937 1.35512C51.3578 0.487709 50.224 0.000261948 49.0417 0H13.375C6.00092 0 0 6.22525 0 13.875V69.375C0 77.0247 6.00092 83.25 13.375 83.25H57.9583C65.3324 83.25 71.3333 77.0247 71.3333 69.375V23.125C71.3331 21.8985 70.8632 20.7223 70.027 19.8551ZM60.5709 23.125H55.7292C52.0421 23.125 49.0417 20.0124 49.0417 16.1875V11.1648L60.5709 23.125ZM57.9583 74H13.375C12.1926 74 11.0586 73.5127 10.2225 72.6454C9.38638 71.778 8.91667 70.6016 8.91667 69.375V13.875C8.91667 12.6484 9.38638 11.472 10.2225 10.6046C11.0586 9.73728 12.1926 9.25 13.375 9.25H44.5833V16.1875C44.5833 22.5654 49.5811 27.75 55.7292 27.75H62.4167V69.375C62.4167 70.6016 61.9469 71.778 61.1109 72.6454C60.2747 73.5127 59.1408 74 57.9583 74Z" fill="#00246D"/>
</svg>
