<svg width="65" height="83" viewBox="0 0 65 83" fill="none" xmlns="http://www.w3.org/2000/svg">
<path fill-rule="evenodd" clip-rule="evenodd" d="M25.2794 14.8167C25.2794 11.979 26.0582 10.2944 27.0287 9.32234C27.9993 8.33818 29.6648 7.55327 32.4865 7.55327C35.3022 7.55327 36.9797 8.33818 37.9442 9.3163C38.9088 10.2944 39.6936 11.9729 39.6936 14.8107C39.6936 17.6484 38.9147 19.3269 37.9442 20.3051C36.9737 21.2832 35.3082 22.0681 32.4865 22.0681C29.6707 22.0681 27.9933 21.2832 27.0287 20.3051C26.0642 19.3269 25.2794 17.6545 25.2794 14.8167ZM32.4865 0C28.2928 0 24.4886 1.20152 21.7328 3.97286C18.9769 6.75024 17.7907 10.5782 17.7907 14.8046C17.7907 19.0311 18.9769 22.8651 21.7328 25.6364C24.4886 28.4078 28.2928 29.6093 32.4865 29.6093C36.6801 29.6093 40.4844 28.4138 43.2402 25.6364C45.996 22.8651 47.1822 19.0311 47.1822 14.8046C47.1822 10.5782 45.996 6.75024 43.2402 3.9789C40.4844 1.20756 36.6801 0.00603779 32.4865 0.00603779M32.4985 40.1935C29.4191 37.3859 25.5909 34.5422 21.4632 32.9603C18.8571 31.964 16.0114 31.4267 13.0998 31.8131C10.1463 32.2116 7.32457 33.5399 4.78441 35.9671C0.446979 40.115 -0.625398 45.3619 0.315178 50.5604C1.23179 55.614 4.03555 60.6857 7.5043 65.1537C10.9932 69.603 15.0641 73.5554 19.606 76.9032C23.8116 79.9825 28.2689 82.3372 32.0072 82.9591C32.3325 83.0136 32.6644 83.0136 32.9897 82.9591C36.7341 82.3372 41.1913 79.9765 45.391 76.9032C49.6685 73.7696 53.9999 69.6579 57.4926 65.1537C60.9674 60.6857 63.7651 55.614 64.6817 50.5604C65.6283 45.3619 64.5559 40.115 60.2125 35.9671C57.6784 33.5399 54.8506 32.2116 51.8971 31.8131C48.9855 31.4267 46.1458 31.964 43.5398 32.9603C39.406 34.5422 35.5838 37.3859 32.4985 40.1935Z" fill="#00246D"/>
</svg>
