<svg width="94" height="90" viewBox="0 0 94 90" fill="none" xmlns="http://www.w3.org/2000/svg">
<path fill-rule="evenodd" clip-rule="evenodd" d="M69.1479 72.4395C69.1479 70.2401 70.0215 68.1307 71.5767 66.5755C73.1318 65.0202 75.2411 64.1465 77.4404 64.1465C79.6397 64.1465 81.749 65.0202 83.3041 66.5755C84.8593 68.1307 85.7329 70.2401 85.7329 72.4395C85.7329 74.6389 84.8593 76.7483 83.3041 78.3035C81.749 79.8588 79.6397 80.7325 77.4404 80.7325C75.2411 80.7325 73.1318 79.8588 71.5767 78.3035C70.0215 76.7483 69.1479 74.6389 69.1479 72.4395ZM77.4404 60C75.4827 59.9998 73.5527 60.4616 71.8072 61.348C70.0616 62.2343 68.55 63.5202 67.3951 65.101C66.2402 66.6818 65.4747 68.5129 65.1609 70.4453C64.847 72.3778 64.9937 74.357 65.589 76.2221C66.1843 78.0871 67.2113 79.7853 68.5867 81.1786C69.962 82.5718 71.6467 83.6208 73.5038 84.2401C75.3609 84.8595 77.338 85.0317 79.2742 84.7428C81.2104 84.4539 83.0511 83.7121 84.6466 82.5777L90.4866 88.418C90.8776 88.7957 91.4013 89.0046 91.9449 88.9999C92.4885 88.9952 93.0084 88.7772 93.3928 88.3928C93.7772 88.0084 93.9952 87.4884 93.9999 86.9448C94.0046 86.4012 93.7957 85.8775 93.418 85.4864L87.5801 79.6482C88.9033 77.7871 89.6888 75.5978 89.8504 73.3199C90.012 71.0421 89.5436 68.7638 88.4964 66.7345C87.4492 64.7053 85.8636 63.0035 83.9135 61.8156C81.9633 60.6277 79.7238 59.9996 77.4404 60Z" fill="#00246D"/>
<path d="M37.2987 85.4417C40.5855 84.9274 43.7373 83.7652 46.5713 82.0225C49.4052 80.2799 51.8649 77.9915 53.8075 75.2902L76.5673 43.8621C84.7383 32.579 82.2016 16.7057 70.9148 8.49183C65.4344 4.52041 58.7582 2.92133 52.0644 3.99107C45.3705 5.06081 39.5252 8.66093 35.5555 14.1426L12.7958 45.5707C4.62478 56.8537 7.16148 72.727 18.4483 80.9409C21.136 82.9023 24.1864 84.3101 27.4223 85.0827C30.6583 85.8553 34.0154 85.9774 37.2987 85.4417ZM19.2809 50.2702L28.3121 37.7995L56.3992 58.153L47.368 70.6238C44.6554 74.3696 40.6467 76.8279 36.0792 77.5578C31.5116 78.2878 26.9364 77.2012 23.1915 74.4874C19.4803 71.7783 16.9906 67.7111 16.2654 63.1732C15.5402 58.6353 16.6383 53.9948 19.3203 50.2639L19.2809 50.2702Z" fill="#00246D"/>
</svg>
