<svg width="33" height="33" viewBox="0 0 33 33" fill="none" xmlns="http://www.w3.org/2000/svg">
<path fill-rule="evenodd" clip-rule="evenodd" d="M16.25 1.78544e-10C18.384 -1.00029e-05 20.497 0.420301 22.4686 1.23693C24.4401 2.05357 26.2315 3.25053 27.7405 4.75948C29.2494 6.26843 30.4464 8.05982 31.2631 10.0314C32.0797 12.0029 32.5 14.116 32.5 16.25C32.5 25.2246 25.2246 32.5 16.25 32.5C7.2754 32.5 0 25.2246 0 16.25C0 7.2754 7.2754 1.78544e-10 16.25 1.78544e-10ZM17.875 17.875H14.625C10.602 17.875 7.14812 20.3115 5.65843 23.7896C8.01549 27.0948 11.8811 29.25 16.25 29.25C20.6189 29.25 24.4845 27.0948 26.8416 23.7894C25.3519 20.3115 21.898 17.875 17.875 17.875ZM16.25 4.875C13.5576 4.875 11.375 7.05763 11.375 9.75C11.375 12.4424 13.5576 14.625 16.25 14.625C18.9423 14.625 21.125 12.4424 21.125 9.75C21.125 7.05763 18.9424 4.875 16.25 4.875Z" fill="#00246D"/>
</svg>
